<?xml version="1.0" encoding="utf-8"?>
<!-- Generator: Adobe Illustrator 24.1.1, SVG Export Plug-In . SVG Version: 6.00 Build 0)  -->
<svg version="1.1" id="Layer_1" xmlns="http://www.w3.org/2000/svg" xmlns:xlink="http://www.w3.org/1999/xlink" x="0px" y="0px"
	 viewBox="0 0 612 792" style="enable-background:new 0 0 612 792;" xml:space="preserve">
<style type="text/css">
	.st0{clip-path:url(#SVGID_2_);}
	.st1{fill:#AC9494;}
	.st2{fill:#FEFEFE;}
	.st3{fill:#FDFDFD;}
	.st4{fill:#AE9595;}
	.st5{fill:#AF9797;}
</style>
<g id="Layer_1_1_">
</g>
<g id="Layer_2_1_">
	<g>
		<g>
			<defs>
				
					<ellipse id="SVGID_1_" transform="matrix(7.160365e-02 -0.9974 0.9974 7.160365e-02 -111.393 673.3237)" cx="306" cy="396.5" rx="448.4" ry="476.1"/>
			</defs>
			<clipPath id="SVGID_2_">
				<use xlink:href="#SVGID_1_"  style="overflow:visible;"/>
			</clipPath>
			<g class="st0">
				<path class="st1" d="M-464.4-365c549.5,6.3,1099.1,12.6,1649.4,18.9c-2,518-3.9,1036-5.9,1554
					c-549.3-6.3-1098.7-12.6-1649.4-18.9C-468.3,669.4-466.3,152.2-464.4-365z M198.8,521.9c-3.9-6.5-5.9-10.1-8.3-13.6
					c-23.6-35-47.4-70-70.8-105.2c-5.6-8.4-12.2-11.1-22-7.4c-18.2,6.9-36.6,13.5-54.8,20.3C32.5,420.1,28.5,427,29.2,438
					c1.2,18.6,0.2,37.3,1.5,55.9c4.8,66.1,10,132.2,15.6,198.2c0.4,4.5,5.3,12.7,7.8,12.6c23.7-0.7,47.4-2.8,72.8-4.6
					c-14.7-59.2-20.3-115.3-18.9-172.3c4.5,3.8,7.7,7.8,10.2,12.2c10.9,19.2,22.1,38.3,32.3,57.9c14.4,27.8,17.9,30.5,50.2,26
					c7-1,15.4-7.2,18.9-13.2c10-17.1,17.4-35.5,26.5-53.1c6.3-12.2,13.7-23.8,20.7-35.7c3.2,6.4,3.4,11.4,3.1,16.4
					c-3.1,57.9-5.8,115.8-9.6,173.6c-0.8,13,3.7,17.2,16.5,15.1c19.9-3.3,39.8-6.7,59.7-10c9.9-1.6,12.9-7.1,12.7-16.4
					c-1.4-80.7-1.5-161.5-3.8-242.2c-1.4-50.2-2.8-49.8-56.2-60.4c-9.9-2-15.4,0.2-20.2,7.7c-13.6,21.2-28,41.9-41.1,63.3
					C217.9,485.2,209.4,502.4,198.8,521.9z M227.3,197c0.2-1.6,0.1-2.3,0.4-2.6c1.8-1.9,3.6-3.9,5.6-5.6
					c22.8-20,31.5-44.5,23.8-73.1c-7.7-28.4-31.8-39.9-59.2-45.9c-48.3-10.6-95.1-4.5-139.9,13.9c-5,2.1-9.9,10.9-9.8,16.6
					c1.1,68.8,2.4,137.6,5.6,206.4c0.8,16.1-7.2,37.3,14.2,47.4c16.5,7.8,34.9,12.2,52.5,17.8c4.1,1.3,8.7,1.4,13,1.8
					c65.1,6.5,128.8-32.3,143.7-87.5c9.4-35,0.5-60.6-27.6-77.9C242.8,204.3,235.2,201,227.3,197z M300.5,238
					c-1.4,0.3-2.7,0.5-4.1,0.8c6.4,26,10,53,20,77.8c16.5,41.2,53.3,62.2,97.8,60.8c40.2-1.3,74.2-16,97.3-46.9
					c42.6-56.9,55.3-120.6,37-188.6c-9.3-34.5-33.3-59-71.4-66.5c-54.5-10.7-101.2,3.1-136.9,43.9
					C310.2,153.7,300.8,194.5,300.5,238z M490.4,664c0.1-25.5,0.2-46.9,0.3-70.7c26.4-1.1,53.1-2.5,79.8-3.2
					c9.7-0.2,14.3-3.1,13.2-12.7c-2-16.8-3.8-33.6-6-53.5c-30.8,3.2-59.2,6.1-88.5,9.1c0.1-13.1,0.5-26,0-38.8
					c-0.4-10,4.4-13.8,14.6-13.9c25.8-0.2,51.6-0.5,77.4-1.5c4.7-0.2,12.7-2.7,13.2-5.3c3.9-19.8,6.3-40,9.2-60.5
					c-19.3-0.2-34.2-1.7-48.8-0.3c-48.5,4.7-96.9,10.6-145.4,15.5c-14.2,1.4-19.3,6.8-18,20.7c4.6,52.1,7.4,104.3,12.4,156.4
					c3.8,39.6,9.9,79,15.2,119.8c11.5,0.1,21.3,0.7,31,0.3c41.7-1.9,83.4-3.3,124.9-6.6c48.3-3.8,37.5,0,35.1-39.1
					c-1.7-28.8-2.8-28.5-33.1-24.8C549.4,658.4,521.7,660.8,490.4,664z"/>
				<path class="st2" d="M-464.4-365c-1.9,517.2-3.9,1034.4-5.9,1554c550.8,6.3,1100.1,12.6,1649.4,18.9c-4.4,1-8.8,2.9-13.2,2.8
					c-78.1-0.7-156.1-1.7-234.2-2.5c-468.4-5.4-936.9-10.7-1405.3-16.1c1.9-514.4,3.9-1028.8,6-1543.1
					C-467.6-355.7-465.5-360.4-464.4-365z"/>
				<path class="st3" d="M198.8,521.9c10.6-19.5,19.1-36.7,29.2-53.1c13.1-21.4,27.5-42.1,41.1-63.3c4.9-7.6,10.3-9.7,20.2-7.7
					c53.3,10.6,54.8,10.2,56.2,60.4c2.2,80.7,2.4,161.5,3.8,242.2c0.2,9.3-2.8,14.7-12.7,16.4c-19.9,3.3-39.8,6.7-59.7,10
					c-12.8,2.1-17.3-2.1-16.5-15.1c3.8-57.8,6.5-115.7,9.6-173.6c0.3-5,0.1-10-3.1-16.4c-6.9,11.9-14.4,23.5-20.7,35.7
					c-9.1,17.6-16.5,36-26.5,53.1c-3.5,6-11.9,12.2-18.9,13.2c-32.3,4.5-35.8,1.8-50.2-26c-10.2-19.6-21.3-38.7-32.3-57.9
					c-2.5-4.4-5.7-8.4-10.2-12.2c-1.4,56.9,4.2,113,18.9,172.3c-25.4,1.8-49,3.9-72.8,4.6c-2.5,0.1-7.4-8-7.8-12.6
					C40.7,626,35.4,560,30.7,493.9c-1.3-18.6-0.3-37.3-1.5-55.9c-0.7-10.9,3.4-17.9,13.8-21.8c18.2-6.8,36.6-13.4,54.8-20.3
					c9.8-3.7,16.4-1.1,22,7.4c23.4,35.2,47.2,70.1,70.8,105.2C192.9,511.8,194.9,515.4,198.8,521.9z"/>
				<path class="st3" d="M227.3,197c7.9,4,15.4,7.2,22.3,11.5c28.1,17.3,37,42.9,27.6,77.9c-14.8,55.2-78.5,94-143.7,87.5
					c-4.4-0.4-8.9-0.5-13-1.8c-17.7-5.6-36-10-52.5-17.8c-21.4-10.2-13.5-31.4-14.2-47.4c-3.3-68.8-4.5-137.6-5.6-206.4
					c-0.1-5.7,4.7-14.6,9.8-16.6c44.8-18.4,91.6-24.4,139.9-13.9c27.4,6,51.5,17.4,59.2,45.9c7.7,28.6-1,53.1-23.8,73.1
					c-2,1.7-3.8,3.7-5.6,5.6C227.4,194.8,227.5,195.4,227.3,197z M128.4,282.1C128.5,282.1,128.5,282.1,128.4,282.1
					c0,6.2-0.1,12.4,0,18.6c0.4,22.8,17.9,31.9,39.1,20.4c19.3-10.4,31.1-39.6,24-59.5c-5.5-15.5-23-22.7-44.7-21.2
					c-21,1.5-18.1,15.1-18.3,27.8C128.4,272.8,128.5,277.5,128.4,282.1z M130.4,190.7c28.7-1.9,47.5-23.6,45.2-50.1
					c-1.7-20-14.4-29.7-38.7-27.8C134.7,138.5,132.6,164.4,130.4,190.7z"/>
				<path class="st3" d="M300.5,238c0.3-43.5,9.8-84.3,39.8-118.6c35.8-40.8,82.4-54.6,136.9-43.9c38.1,7.5,62.1,31.9,71.4,66.5
					c18.2,68,5.6,131.7-37,188.6c-23.1,30.9-57.1,45.6-97.3,46.9c-44.6,1.4-81.3-19.6-97.8-60.8c-10-24.8-13.5-51.8-20-77.8
					C297.8,238.6,299.1,238.3,300.5,238z M467.7,225.4c-1.5-21-2.6-37.5-3.8-54c-0.3-3.6-0.9-7.2-1.7-10.7
					c-5.1-23.4-15-35-30.5-35.9c-15.1-0.9-27.6,9.9-34,32.5c-12.5,44.2-12.9,88.9-1.5,133.5c5.7,22.5,17.1,33.6,31.3,33.9
					c14.8,0.3,27.5-11.8,31.8-34.4C463.6,267.5,465.4,244.2,467.7,225.4z"/>
				<path class="st3" d="M490.4,664c31.3-3.2,59-5.6,86.5-9c30.3-3.8,31.3-4.1,33.1,24.8c2.3,39.1,13.2,35.3-35.1,39.1
					c-41.5,3.3-83.2,4.6-124.9,6.6c-9.7,0.5-19.5-0.1-31-0.3c-5.3-40.8-11.4-80.2-15.2-119.8c-5-52.1-7.8-104.3-12.4-156.4
					c-1.2-13.9,3.8-19.3,18-20.7c48.5-4.9,96.9-10.8,145.4-15.5c14.6-1.4,29.5,0.1,48.8,0.3c-2.9,20.5-5.4,40.6-9.2,60.5
					c-0.5,2.5-8.5,5.1-13.2,5.3c-25.8,0.9-51.6,1.3-77.4,1.5c-10.2,0.1-15,3.9-14.6,13.9c0.5,12.8,0,25.7,0,38.8
					c29.3-3,57.7-5.9,88.5-9.1c2.2,19.8,3.9,36.7,6,53.5c1.2,9.6-3.5,12.5-13.2,12.7c-26.7,0.6-53.4,2.1-79.8,3.2
					C490.5,617.1,490.5,638.5,490.4,664z"/>
				<path class="st4" d="M128.4,282.1c0-4.6,0-9.3,0.1-13.9c0.2-12.7-2.7-26.2,18.3-27.8c21.7-1.6,39.2,5.6,44.7,21.2
					c7.1,19.9-4.7,49.1-24,59.5c-21.3,11.5-38.7,2.4-39.1-20.4C128.3,294.5,128.5,288.3,128.4,282.1
					C128.5,282.1,128.5,282.1,128.4,282.1z"/>
				<path class="st5" d="M130.4,190.7c2.2-26.3,4.3-52.2,6.4-77.8c24.3-1.9,37,7.8,38.7,27.8C177.9,167.1,159.1,188.8,130.4,190.7z"
					/>
				<path class="st4" d="M467.7,225.4c-2.4,18.8-4.1,42-8.5,64.8c-4.3,22.6-17,34.7-31.8,34.4c-14.2-0.3-25.6-11.4-31.3-33.9
					c-11.4-44.6-10.9-89.3,1.5-133.5c6.4-22.6,18.9-33.4,34-32.5c15.5,0.9,25.4,12.5,30.5,35.9c0.8,3.5,1.4,7.1,1.7,10.7
					C465.2,187.9,466.3,204.4,467.7,225.4z"/>
			</g>
		</g>
	</g>
</g>
</svg>
