<?xml version="1.0" encoding="utf-8"?>
<!-- Generator: Adobe Illustrator 24.1.1, SVG Export Plug-In . SVG Version: 6.00 Build 0)  -->
<svg version="1.1" id="Layer_1" xmlns="http://www.w3.org/2000/svg" xmlns:xlink="http://www.w3.org/1999/xlink" x="0px" y="0px"
	 viewBox="0 0 612 792" style="enable-background:new 0 0 612 792;" xml:space="preserve">
<style type="text/css">
	.st0{clip-path:url(#SVGID_2_);}
	.st1{fill:#343A40;}
	.st2{fill:#FEFEFE;}
	.st3{fill:#FBFBFB;}
	.st4{fill:#FAFAFA;}
	.st5{fill:#393E44;}
	.st6{fill:#40464B;}
	.st7{fill:#363C42;}
</style>
<g id="Layer_1_1_">
</g>
<g id="Layer_2_1_">
	<g>
		<g>
			<defs>
				<ellipse id="SVGID_1_" cx="513.5" cy="396" rx="972.5" ry="726"/>
			</defs>
			<clipPath id="SVGID_2_">
				<use xlink:href="#SVGID_1_"  style="overflow:visible;"/>
			</clipPath>
			<g class="st0">
				<path class="st1" d="M-849.8-1960.3c898.2,0,1796.5,0,2696,0c0,1588.9,0,3177.8,0,4766.8c-898.2,0-1796.4,0-2696,0
					C-849.8,1213.7-849.8-373.3-849.8-1960.3z M587.4,643.6c-7-112.1-13.4-215.3-19.8-318.4c3.4-1.3,6.8-2.7,10.2-3.9
					c12.1,39.9,25.2,78.8,35.9,119.9c8.6,33.2,16.1,59.9,41.9,58c24.3-1.8,30.5-27.3,38.3-59.4c10.8-45.2,24.3-88.5,36.6-132.6
					c2.4,1.3,4.8,2.7,7.3,3.9c-3,125.6-5.9,251.3-9.1,385.4c26.2-8.5,50.1-13.6,72.9-25.2c7.1-3.6,16-25,16-38.1
					c-0.4-166.6-3.5-333.3-3.3-499.9c0.1-56.4-22.5-54.6-41.6-67.3c-19.4-12.9-33.1-8.7-43.9,27.4c-20.5,68-43.2,133.7-65.5,201.8
					c-8.7-27.6-16.6-54.1-25.3-79.7c-9.3-27.1-19-53.7-29.2-79.9c-35.6-91.2-52.1-96.8-104.7-33.6c-6.1,7.3-12.2,24.6-12,36.8
					c4,170.7,9.1,341.2,14.1,517.9C537.7,651.5,563.1,647.4,587.4,643.6z M113,323.5c3.7-7.1,7.3-13.9,10.9-20.8
					c43-85.1,25.2-192.5-37.3-219.1C38.1,63.2-9.8,73-55.2,109c-7.2,5.7-14.9,27.6-14.8,41.9c1.9,147.2,5,294.5,9,441.6
					c0.4,14,7.4,32.5,14.5,40c57.5,61.4,137.6,41.1,182.8-44.3C187.4,491.8,178.4,387.2,113,323.5z M451,313.7
					c-0.4-13.4-0.3-34.1-1.7-54.5c-8.1-120-55.8-189.1-122-177.6c-41.3,7.3-75.1,39.5-100.1,99.1c-37.9,90.4-43.2,193.5-33.4,299.4
					c10.3,110.3,41.2,169.9,89.5,184.3C337.5,680.5,388,636,418.1,544C440.6,475,450.3,399.9,451,313.7z M1088.6,665.5
					c-3.1-46.7-5.7-86.2-8.2-124.4c-41.5,8.5-78.4,16-117.7,24.2c0-48.3,0-88.9,0-134.1c30.9-3.9,61.8-7.8,96-12.1
					c-2.3-40.4-4.5-78.7-7-123.9c-31.8,6.8-60.5,13-89,19.1c0-32.9,0-65.2,0-103.4c36,0,69.9,0,106.1,0c3-45.5,5.5-85.5,9-138.4
					c-75.1,15.3-145.5,29.7-222.2,45.2c11.2,187.9,21.8,367.2,33.4,546.3c0.5,8.2,10.9,21,16.4,20.5
					C965.5,679.4,1025.3,672.4,1088.6,665.5z"/>
				<path class="st2" d="M-849.8-1960.3c0,1587,0,3174,0,4766.8c899.6,0,1797.8,0,2696,0c-7.2,3.2-14.4,9-21.5,9.2
					c-127.6,0.5-255.2,0.4-382.8,0.4c-765.7,0-1531.3,0-2297,0c0-1577.8,0-3155.6,0.2-4733.4C-855-1931.7-851.6-1946.1-849.8-1960.3
					z"/>
				<path class="st3" d="M587.4,643.6c-24.3,3.9-49.7,8-81.3,13c-5-176.5-10.1-347.2-14.1-517.9c-0.3-12.2,5.8-29.5,12-36.8
					c52.5-63.2,69.1-57.4,104.7,33.6c10.2,26.1,20,52.7,29.2,79.9c8.7,25.6,16.6,52.1,25.3,79.7c22.3-68,45-133.7,65.5-201.8
					c10.8-36,24.5-40.2,43.9-27.4c19.1,12.6,41.7,10.8,41.6,67.3c-0.2,166.6,2.9,333.3,3.3,499.9c0.1,13.1-8.9,34.4-16,38.1
					c-22.8,11.6-46.7,16.7-72.9,25.2c3.2-134.1,6.1-259.7,9.1-385.4c-2.4-1.3-4.8-2.7-7.3-3.9c-12.3,44.1-25.8,87.4-36.6,132.6
					c-7.6,32.1-13.9,57.6-38.3,59.4c-25.9,1.9-33.3-24.8-41.9-58c-10.7-41-23.8-80-35.9-119.9c-3.4,1.3-6.8,2.7-10.2,3.9
					C574,428.2,580.4,531.4,587.4,643.6z"/>
				<path class="st4" d="M113,323.5c65.4,63.6,74.4,168.3,23.4,264.7C91.1,673.7,11,693.9-46.4,632.5c-7-7.5-14-26-14.5-40
					c-4-147.1-7.1-294.3-9-441.6c-0.2-14.1,7.5-36,14.8-41.9c45.3-36,93.2-46,141.7-25.3c62.6,26.5,80.4,134,37.3,219.1
					C120.3,309.6,116.7,316.4,113,323.5z M35.8,411c-16-2.7-25.1,10.3-23.1,46.4c1.5,26.5-1.7,54.3,1.2,80.1
					c1.5,13.6,10.5,32.2,17.8,35c22.5,8.7,45.6-37.7,47.2-89.4C80.3,434.3,66.9,410.3,35.8,411z M15.1,315.1
					c32.9-11.8,51.2-53.9,45.2-103.6c-4.4-36.2-16.9-53-40.1-43.4C18.5,217.7,16.9,266,15.1,315.1z"/>
				<path class="st4" d="M451,313.7c-0.6,86.4-10.4,161.4-32.8,230.2C388,636,337.5,680.5,283.3,664.4
					c-48.3-14.3-79.2-73.9-89.5-184.3c-9.9-106-4.5-209,33.4-299.4c25-59.6,58.7-91.7,100.1-99.1c66.3-11.7,113.8,57.6,122,177.6
					C450.7,279.5,450.5,300.2,451,313.7z M360.8,366.2c-2.6-44.1-1.9-85-8.2-122.3c-3.9-22.9-17.8-54.9-28.2-56.2
					c-10.6-1.3-28.7,26.5-32.6,47.9c-16.8,90.8-16.6,184.9-1.3,276.4c3.5,21.1,19.4,35.9,29.6,53.6c10.4-19.1,26.7-35.4,30.2-58
					C357.5,461.1,357.8,411,360.8,366.2z"/>
				<path class="st4" d="M1088.6,665.5c-63.4,6.9-123.2,13.9-183.1,18.7c-5.5,0.4-15.8-12.4-16.4-20.5
					c-11.6-179.1-22.1-358.4-33.4-546.3c76.6-15.7,147.1-29.9,222.2-45.2c-3.5,53-6.1,93-9,138.4c-36.2,0-70.1,0-106.1,0
					c0,38.2,0,70.6,0,103.4c28.5-6.1,57.1-12.2,89-19.1c2.6,45.3,4.8,83.7,7,123.9c-34.1,4.3-65,8.2-96,12.1c0,45.3,0,85.8,0,134.1
					c39.3-8,76.1-15.7,117.7-24.2C1083,579.3,1085.5,618.6,1088.6,665.5z"/>
				<path class="st5" d="M35.8,411c31.1-0.9,44.5,23.3,43,72.1c-1.5,51.7-24.7,98.1-47.2,89.4c-7.3-2.8-16.3-21.4-17.8-35
					c-2.8-25.9,0.4-53.5-1.2-80.1C10.8,421.3,19.8,408.4,35.8,411z"/>
				<path class="st6" d="M15.1,315.1c1.7-49.2,3.4-97.4,5.1-147c23.2-9.6,35.7,7.3,40.1,43.4C66.4,261.2,48.1,303.3,15.1,315.1z"/>
				<path class="st7" d="M360.8,366.2c-3,44.8-3.4,94.9-10.5,141.6c-3.5,22.4-19.7,38.8-30.2,58c-10.2-17.7-26-32.5-29.6-53.6
					c-15.3-91.5-15.5-185.6,1.3-276.4c4-21.4,22-49.2,32.6-47.9c10.4,1.3,24.3,33.2,28.2,56.2C358.8,281.2,358.2,322.1,360.8,366.2z
					"/>
			</g>
		</g>
	</g>
</g>
</svg>
